<?xml version="1.0" standalone="no"?>
<!DOCTYPE svg PUBLIC "-//W3C//DTD SVG 20010904//EN"
 "http://www.w3.org/TR/2001/REC-SVG-20010904/DTD/svg10.dtd">
<svg version="1.0" xmlns="http://www.w3.org/2000/svg"
 width="1024.000000pt" height="1024.000000pt" viewBox="0 0 1024.000000 1024.000000"
 preserveAspectRatio="xMidYMid meet">

<g transform="translate(0.000000,1024.000000) scale(0.100000,-0.100000)"
fill="#000000" stroke="none">
<path d="M4585 8361 c-22 -10 -48 -28 -58 -39 -42 -47 -46 -83 -47 -409 l0
-313 169 0 168 0 7 38 c11 66 7 564 -5 607 -16 57 -46 95 -93 116 -52 23 -90
23 -141 0z"/>
<path d="M5635 8365 c-50 -18 -91 -62 -105 -114 -6 -25 -9 -153 -8 -348 l3
-308 170 0 170 0 3 295 c2 193 -1 313 -8 348 -14 64 -59 115 -115 131 -50 14
-61 13 -110 -4z"/>
<path d="M4018 7461 c-52 -11 -87 -37 -105 -78 -11 -29 -14 -73 -11 -212 3
-153 6 -180 22 -208 22 -35 77 -63 126 -63 l30 0 0 -217 c0 -308 20 -425 100
-583 84 -166 238 -309 481 -446 127 -71 141 -71 212 6 31 33 73 90 94 127 73
132 187 411 222 546 12 48 -2 90 -35 106 -14 6 -60 11 -102 11 -91 0 -122 7
-122 27 0 8 96 202 213 431 116 228 216 430 221 447 5 18 6 44 2 59 -14 56
-17 56 -693 55 -340 -1 -634 -5 -655 -8z m1116 -171 c10 -10 -80 -194 -371
-758 -105 -205 -85 -244 123 -240 55 1 105 -2 112 -6 16 -9 9 -34 -44 -174
-54 -139 -114 -257 -158 -308 l-33 -38 -82 49 c-111 67 -236 169 -278 228
l-35 47 127 0 c121 0 129 -1 157 -25 42 -35 91 -34 129 4 48 48 37 116 -22
147 -37 19 -71 12 -112 -22 -27 -23 -34 -24 -178 -24 l-150 0 -19 43 c-40 90
-40 91 37 140 89 58 143 116 190 202 34 62 45 74 98 102 45 24 73 33 111 33
41 0 55 5 74 25 31 33 32 87 2 117 -44 44 -142 19 -142 -36 0 -12 -4 -26 -8
-31 -8 -11 -57 -35 -72 -35 -6 0 -10 52 -10 125 0 107 3 129 20 157 28 45 25
75 -9 109 -38 37 -79 38 -121 2 -28 -23 -32 -31 -27 -64 3 -21 14 -50 26 -65
19 -24 21 -40 21 -148 0 -128 -16 -220 -49 -284 -38 -74 -172 -172 -192 -140
-5 7 -9 147 -9 310 l0 298 -22 5 c-13 3 -50 6 -83 7 l-60 3 -3 127 c-3 125 -2
127 20 130 13 2 250 3 527 1 345 -1 507 -5 515 -13z"/>
<path d="M5509 7453 c0 -4 0 -40 1 -79 1 -76 -12 -118 -166 -507 -62 -157 -67
-196 -28 -226 24 -19 40 -21 181 -21 138 0 154 -2 149 -16 -7 -18 -169 -256
-516 -759 -209 -301 -249 -366 -250 -395 0 -65 28 -80 149 -80 50 0 91 -2 91
-4 0 -22 -51 -158 -82 -221 -173 -345 -503 -538 -1063 -620 -93 -14 -186 -25
-205 -25 -27 -1 -31 -3 -19 -10 28 -16 315 -23 439 -11 582 59 924 305 1079
775 l36 108 50 19 c78 29 105 77 70 125 -12 19 -29 22 -126 29 -127 8 -154 18
-137 49 11 21 220 325 492 716 284 408 266 380 266 427 0 30 -6 49 -20 63 -18
18 -33 20 -195 20 -145 0 -175 2 -175 14 0 8 31 97 69 198 37 101 74 200 80
220 22 67 25 68 312 68 142 0 264 -3 273 -6 13 -5 16 -26 16 -123 0 -64 -4
-121 -8 -128 -4 -7 -38 -13 -82 -15 l-75 -3 -6 -320 c-3 -176 -11 -343 -17
-371 -45 -210 -158 -352 -404 -510 -86 -56 -121 -84 -132 -109 -20 -41 -7 -77
32 -94 21 -10 33 -8 80 15 69 34 191 115 278 185 136 110 244 277 285 441 18
71 22 124 26 354 l5 272 51 5 c54 7 80 25 105 72 23 45 30 355 9 407 -31 73
-30 73 -499 76 -230 2 -418 -1 -419 -5z"/>
<path d="M3830 6132 c-527 -265 -842 -622 -817 -924 26 -312 427 -504 957
-459 247 21 463 79 668 177 82 40 128 69 168 108 107 103 51 122 -149 51 -248
-88 -435 -125 -657 -130 -183 -4 -282 6 -405 41 -171 48 -278 117 -325 210
-21 41 -25 63 -25 134 0 75 4 93 32 152 48 103 106 180 222 301 107 111 238
223 389 335 46 34 78 62 70 62 -7 0 -65 -27 -128 -58z"/>
<path d="M6490 5685 c-212 -27 -449 -103 -715 -230 -141 -67 -165 -84 -140
-105 19 -16 58 -10 240 38 216 58 347 76 560 76 161 1 188 -1 253 -22 55 -17
83 -33 118 -67 46 -44 46 -44 42 -102 -5 -74 -46 -138 -161 -253 -107 -107
-251 -201 -472 -310 -536 -265 -1200 -436 -1863 -480 -85 -5 -190 -11 -235
-11 l-82 -1 50 -11 c28 -6 206 -10 410 -11 390 -1 458 4 808 63 752 127 1510
437 1807 740 138 140 196 260 188 391 -3 55 -9 76 -33 110 -34 49 -121 110
-199 139 -143 53 -373 71 -576 46z"/>
<path d="M1916 3771 c-3 -4 -8 -33 -12 -63 l-6 -55 83 -7 83 -8 -59 -33 c-33
-19 -66 -37 -73 -42 -6 -4 -23 -69 -36 -143 -48 -264 -126 -715 -126 -727 0
-10 30 -13 115 -13 63 0 115 1 115 3 1 1 18 92 38 202 l37 200 65 3 65 3 102
-206 103 -205 136 0 c74 0 133 3 131 8 -21 35 -237 443 -237 446 0 3 33 22 73
43 147 77 218 183 220 328 1 151 -98 239 -297 265 -90 12 -513 13 -520 1z
m500 -187 c57 -28 78 -65 78 -128 -2 -89 -47 -149 -149 -195 -16 -8 -76 -16
-132 -19 l-103 -5 0 24 c0 13 14 96 30 184 16 88 30 162 30 164 0 2 47 1 104
-1 73 -4 116 -11 142 -24z"/>
<path d="M6117 3723 c-37 -61 -143 -244 -262 -453 -113 -198 -260 -450 -299
-515 -20 -33 -36 -63 -36 -67 0 -5 55 -8 123 -8 l123 0 64 115 64 115 217 0
217 0 6 -27 c3 -16 8 -55 11 -88 4 -33 9 -72 11 -87 l6 -28 120 0 120 0 -6 28
c-6 30 -102 663 -139 912 l-23 155 -141 3 -141 3 -35 -58z m188 -594 c7 -53 6
-56 -17 -62 -41 -12 -308 -8 -308 4 0 9 149 297 238 459 l36 65 22 -205 c12
-113 25 -230 29 -261z"/>
<path d="M7508 3643 l-47 -4 -11 -57 c-15 -78 -40 -175 -45 -180 -3 -3 -27 -7
-54 -10 l-49 -4 -11 -63 c-6 -34 -11 -65 -11 -68 0 -4 20 -7 45 -7 35 0 45 -4
45 -16 0 -9 -14 -92 -31 -183 -46 -246 -36 -309 57 -356 32 -17 59 -20 154
-20 63 0 132 4 153 8 l39 8 -7 42 c-3 23 -9 56 -11 72 l-5 30 -69 -3 c-59 -3
-71 -1 -89 17 -27 27 -27 46 9 235 17 87 30 160 30 162 0 2 44 5 97 6 l97 3
13 50 c25 97 26 95 -82 95 -52 0 -95 3 -95 8 0 4 9 54 20 112 11 58 20 111 20
117 0 13 -50 15 -162 6z"/>
<path d="M3030 3387 c-165 -56 -284 -201 -311 -379 -21 -140 25 -244 132 -303
46 -25 67 -30 147 -33 99 -5 185 8 267 39 80 30 78 28 65 96 l-12 60 -52 -19
c-71 -28 -200 -35 -248 -15 -42 18 -78 68 -78 110 l0 27 78 0 c88 1 210 20
263 43 52 21 116 82 129 122 16 50 14 128 -5 168 -18 39 -74 82 -126 97 -60
18 -178 11 -249 -13z m158 -122 c28 -8 51 -56 44 -91 -10 -54 -100 -93 -214
-94 -69 0 -72 8 -32 88 28 56 68 91 118 102 31 8 42 7 84 -5z"/>
<path d="M3897 3386 c-32 -14 -76 -36 -98 -50 l-39 -26 0 46 0 47 -77 -7 c-42
-3 -88 -6 -103 -6 -26 0 -26 0 -49 -142 -12 -79 -51 -303 -85 -498 -34 -195
-62 -356 -61 -358 1 -1 50 5 109 14 125 20 115 8 140 164 23 140 17 131 68
113 30 -11 66 -14 120 -10 191 13 366 170 407 365 16 75 14 182 -4 233 -44
124 -185 173 -328 115z m74 -149 c28 -22 39 -55 39 -120 0 -82 -20 -147 -65
-213 -57 -82 -145 -114 -233 -83 -35 12 -36 -13 7 225 l26 148 54 28 c58 30
142 38 172 15z"/>
<path d="M4585 3399 c-83 -19 -195 -61 -195 -73 0 -30 32 -116 43 -116 7 0 41
9 77 21 38 12 97 21 142 22 64 2 81 -1 105 -19 25 -19 28 -28 28 -75 l0 -54
-102 -7 c-234 -15 -381 -90 -413 -210 -24 -89 3 -156 81 -196 39 -21 55 -23
136 -20 82 4 100 8 163 40 l70 36 0 -34 0 -34 105 0 c120 0 105 -16 125 135 6
50 22 146 36 215 30 154 31 233 5 276 -23 38 -74 77 -120 93 -40 13 -228 13
-286 0z m170 -456 c-11 -73 -20 -87 -74 -117 -66 -35 -129 -39 -168 -10 -34
25 -39 53 -18 93 25 50 98 78 209 80 l58 1 -7 -47z"/>
<path d="M5585 3396 c-63 -20 -97 -41 -155 -95 -30 -28 -54 -51 -55 -51 0 0 1
34 3 76 l4 76 -99 -7 c-54 -4 -100 -9 -102 -11 -2 -2 -19 -90 -37 -196 -18
-106 -44 -260 -58 -342 -14 -82 -26 -153 -26 -158 0 -4 49 -8 109 -8 l109 0 6
28 c3 15 19 103 36 197 28 159 32 171 63 203 55 58 111 84 188 90 l69 5 26 86
c14 47 27 91 29 97 2 7 -10 15 -27 18 -37 7 -34 8 -83 -8z"/>
<path d="M8125 3396 c-211 -69 -335 -236 -335 -449 0 -141 59 -225 183 -262
101 -30 271 -14 389 37 l50 21 -7 46 c-11 83 -8 80 -73 58 -83 -29 -207 -34
-251 -9 -36 20 -71 72 -71 107 0 19 9 22 138 32 215 17 311 67 341 176 28 99
-8 188 -95 232 -49 25 -207 32 -269 11z m163 -151 c12 -14 22 -37 22 -49 0
-31 -36 -75 -74 -91 -44 -19 -191 -30 -200 -16 -9 14 28 98 57 130 58 62 152
75 195 26z"/>
<path d="M6810 3393 l-45 -4 -54 -327 c-29 -180 -56 -339 -58 -354 l-5 -28
110 0 110 0 6 28 c3 15 19 104 36 197 l30 170 49 46 c56 52 121 79 191 79 l46
0 27 89 c15 50 27 95 27 100 0 7 -22 11 -52 11 -69 0 -137 -32 -210 -99 l-58
-53 7 76 6 76 -59 -2 c-32 -1 -79 -3 -104 -5z"/>
</g>
</svg>
